<mxfile host="app.diagrams.net" modified="2022-04-10T12:57:22.121Z" agent="5.0 (Windows NT 10.0; Win64; x64) AppleWebKit/537.36 (KHTML, like Gecko) Chrome/100.0.4896.75 Safari/537.36 Edg/100.0.1185.36" etag="_6_nGEp_PVBLk9thRM-J" version="17.4.2" type="github">
  <diagram id="JIHzETXO3sBrhmFqyNRF" name="Page-1">
    <mxGraphModel dx="345" dy="206" grid="1" gridSize="10" guides="1" tooltips="1" connect="1" arrows="1" fold="1" page="1" pageScale="1" pageWidth="827" pageHeight="1169" math="0" shadow="0">
      <root>
        <mxCell id="0" />
        <mxCell id="1" parent="0" />
        <mxCell id="MzRBFHZEN5PKviGkM9_Y-1" value="&lt;p style=&quot;text-align: justify ; line-height: 1.3&quot;&gt;&lt;br&gt;&lt;/p&gt;" style="whiteSpace=wrap;html=1;aspect=fixed;align=left;verticalAlign=bottom;" vertex="1" parent="1">
          <mxGeometry x="333" y="140" width="80" height="80" as="geometry" />
        </mxCell>
        <mxCell id="MzRBFHZEN5PKviGkM9_Y-2" value="" style="endArrow=none;html=1;rounded=0;entryX=1;entryY=0;entryDx=0;entryDy=0;exitX=0;exitY=1;exitDx=0;exitDy=0;" edge="1" parent="1" source="MzRBFHZEN5PKviGkM9_Y-1" target="MzRBFHZEN5PKviGkM9_Y-1">
          <mxGeometry width="50" height="50" relative="1" as="geometry">
            <mxPoint x="350" y="205" as="sourcePoint" />
            <mxPoint x="400" y="155" as="targetPoint" />
          </mxGeometry>
        </mxCell>
        <mxCell id="MzRBFHZEN5PKviGkM9_Y-3" value="P偏振光" style="endArrow=classic;html=1;rounded=0;fontStyle=0;align=center;" edge="1" parent="1">
          <mxGeometry x="1" y="71" width="50" height="50" relative="1" as="geometry">
            <mxPoint x="274" y="179.76" as="sourcePoint" />
            <mxPoint x="380" y="180" as="targetPoint" />
            <mxPoint x="70" y="61" as="offset" />
          </mxGeometry>
        </mxCell>
        <mxCell id="MzRBFHZEN5PKviGkM9_Y-8" value="入射光" style="edgeLabel;html=1;align=center;verticalAlign=middle;resizable=0;points=[];" vertex="1" connectable="0" parent="MzRBFHZEN5PKviGkM9_Y-3">
          <mxGeometry x="-0.7046" y="-1" relative="1" as="geometry">
            <mxPoint y="-11" as="offset" />
          </mxGeometry>
        </mxCell>
        <mxCell id="MzRBFHZEN5PKviGkM9_Y-4" value="S偏振光" style="endArrow=classic;html=1;rounded=0;" edge="1" parent="1">
          <mxGeometry x="0.5" y="-26" width="50" height="50" relative="1" as="geometry">
            <mxPoint x="373.93" y="180" as="sourcePoint" />
            <mxPoint x="373.93" y="100" as="targetPoint" />
            <mxPoint as="offset" />
          </mxGeometry>
        </mxCell>
        <mxCell id="MzRBFHZEN5PKviGkM9_Y-7" value="" style="endArrow=classic;html=1;rounded=0;" edge="1" parent="1">
          <mxGeometry width="50" height="50" relative="1" as="geometry">
            <mxPoint x="373" y="179.89" as="sourcePoint" />
            <mxPoint x="453" y="179.89" as="targetPoint" />
          </mxGeometry>
        </mxCell>
      </root>
    </mxGraphModel>
  </diagram>
</mxfile>
